<?xml version="1.0" encoding="UTF-8" standalone="no"?>
<!-- Created with Inkscape (http://www.inkscape.org/) -->

<svg
   width="512"
   height="512"
   viewBox="0 0 512 512"
   version="1.1"
   id="svg5"
   inkscape:version="1.2.2 (b0a8486, 2022-12-01)"
   sodipodi:docname="Vase.svg"
   xmlns:inkscape="http://www.inkscape.org/namespaces/inkscape"
   xmlns:sodipodi="http://sodipodi.sourceforge.net/DTD/sodipodi-0.dtd"
   xmlns="http://www.w3.org/2000/svg"
   xmlns:svg="http://www.w3.org/2000/svg">
  <sodipodi:namedview
     id="namedview7"
     pagecolor="#ffffff"
     bordercolor="#000000"
     borderopacity="0.25"
     inkscape:showpageshadow="2"
     inkscape:pageopacity="0.0"
     inkscape:pagecheckerboard="0"
     inkscape:deskcolor="#d1d1d1"
     inkscape:document-units="px"
     showgrid="false"
     inkscape:zoom="0.58695387"
     inkscape:cx="-84.333714"
     inkscape:cy="113.29681"
     inkscape:window-width="1848"
     inkscape:window-height="1016"
     inkscape:window-x="72"
     inkscape:window-y="27"
     inkscape:window-maximized="1"
     inkscape:current-layer="g1803" />
  <defs
     id="defs2" />
  <g
     inkscape:label="Camada 1"
     inkscape:groupmode="layer"
     id="layer1">
    <g
       id="g1803"
       transform="translate(1.5416211,22.40768)">
      <path
         style="color:#000000;fill:#00ff00;stroke-linecap:round;-inkscape-stroke:none"
         d="m 297.31836,56.845703 a 5,5 0 0 0 -3.82617,0.103516 c -7.19954,3.215498 -17.35542,1.895378 -28.08203,1.6875 -5.36331,-0.10394 -10.90556,0.142262 -16.27344,2.044922 -5.36788,1.902659 -10.43278,5.650672 -14.10547,11.607421 -11.25831,16.132684 -17.4,33.727978 -17.47656,53.640628 l -0.002,0.17969 0.0137,0.17968 c 1.2359,18.04981 -2.4492,38.43587 6.67382,57.95899 2.44458,11.71938 1.32815,25.10855 1.55274,38.82031 0.22619,13.81 2.00529,28.2516 11.55664,40.85547 a 5,5 0 0 0 7.00391,0.96484 5,5 0 0 0 0.96484,-7.00586 c -7.70351,-10.16547 -9.31316,-21.90197 -9.52734,-34.97851 -0.21419,-13.07655 1.1438,-27.17978 -1.80665,-41.00391 l -0.1289,-0.59961 -0.26953,-0.55078 c -7.9248,-16.236 -4.67202,-35.1225 -6.04297,-55.14453 l 0.0117,0.36133 c 0.0693,-18.01178 5.41774,-33.351754 15.82422,-48.181644 l 0.0859,-0.123047 0.0781,-0.125 c 2.58387,-4.19078 5.41302,-6.181119 8.93555,-7.429687 3.52252,-1.248568 7.86737,-1.567053 12.73828,-1.472656 9.74181,0.188793 21.44951,2.315321 32.35351,-2.554688 a 5,5 0 0 0 2.52735,-6.603516 5,5 0 0 0 -2.7793,-2.630859 z"
         id="path680" />
      <path
         id="path1777"
         style="fill:#ff0000;fill-opacity:1;stroke:none;stroke-width:10;stroke-linecap:round;stroke-dasharray:none;stroke-opacity:1"
         d="m 324.46875,-9.015625 c -1.56038,-0.057479 -3.10919,0.1537687 -4.58984,0.9433594 -3.45073,1.8401571 -8.07196,2.4624817 -10.24805,5.9257812 -4.30229,6.8472195 -5.31604,15.0444964 -4.61719,23.0644534 -3.43274,-7.486896 -8.49769,-14.2849696 -15.82617,-18.1289065 -3.62217,-1.89990374 -7.92787,-0.1147108 -11.83594,0.029297 -3.35377,0.1235661 -5.78019,2.3814204 -8.13281,4.4179687 -5.426,4.6969898 -7.90808,12.5312988 -6.27148,19.1874998 1.46187,5.945562 6.70676,10.347801 11.68164,13.898438 0.0894,0.06385 0.18173,0.122242 0.27148,0.185546 -7.20032,-1.847517 -14.75878,-2.170182 -21.74023,0.480469 -3.82389,1.451824 -5.3428,5.859846 -7.82618,8.88086 -2.13119,2.59253 -2.05259,5.904186 -2.08789,9.015625 -0.0815,7.176101 4.13917,14.229806 10.20703,17.417968 5.42006,2.847776 12.19392,1.838677 18.1504,0.46875 13.14758,-3.023785 24.69822,-10.415144 35.39257,-18.236328 0.95697,-0.699883 1.86551,-1.994922 0.25782,-2.878906 -2.23239,-1.227461 -4.46473,-2.458577 -6.70313,-3.681641 3.71378,1.042722 7.46553,1.939068 11.19727,2.751953 0.6798,0.148074 1.49261,0.135276 1.97461,-0.251953 0.67567,0.823679 1.79152,0.278009 2.51562,-0.384765 2.8178,-2.579192 5.61217,-5.238891 8.29883,-8.007813 -1.32046,2.183083 -2.63227,4.370822 -3.94531,6.554688 -0.94539,1.572375 0.49081,2.235445 1.66992,2.359375 13.17658,1.384823 26.87811,1.966281 39.76367,-2.029297 5.83777,-1.81018 12.19937,-4.342787 15.45313,-9.529297 3.64264,-5.806427 3.74635,-14.025078 0.0684,-20.1875 -1.59471,-2.671927 -3.19229,-5.576354 -6.3379,-6.746094 -3.66547,-1.363086 -7.1931,-4.409482 -11.22851,-3.742187 -7.36854,1.218473 -13.74313,5.297928 -19.03906,10.515625 0.0461,-0.10052 0.097,-0.197983 0.14257,-0.298828 2.51558,-5.570302 4.83848,-12.012156 3.11329,-17.886719 -1.93141,-6.5767136 -8.01464,-12.1029642 -15.06641,-13.4355469 -1.52876,-0.2889002 -3.10173,-0.6143956 -4.66211,-0.671875 z M 349.875,56.345703 c -8.55379,-0.02948 -17.08192,0.794265 -25.58984,1.509766 -1.82824,0.153755 -1.52326,1.705764 -0.9336,2.734375 3.41872,5.963642 7.10112,11.911338 11.35352,17.390625 -5.30345,-5.107913 -10.97023,-9.829579 -16.57227,-14.59375 -1.39763,-1.188591 -2.28551,0.122347 -2.59961,1.265625 -3.50997,12.775751 -6.31288,26.200548 -4.46679,39.564456 0.83636,6.05449 2.30057,12.74271 6.88867,16.79687 5.13647,4.53874 13.22755,5.97805 19.90625,3.35156 2.89576,-1.13879 6.0216,-2.24284 7.6875,-5.15625 1.94123,-3.39489 5.52144,-6.38048 5.51953,-10.4707 -0.004,-7.89229 -3.34756,-15.203458 -8.02734,-21.515624 1.65889,1.557524 3.39346,3.041636 5.22851,4.421875 4.88454,3.67392 10.66175,7.350522 16.77149,6.953125 6.84,-0.444898 13.56232,-5.172691 16.40625,-11.761718 1.23308,-2.856887 2.65435,-5.850772 1.76171,-9.085938 -1.04014,-3.769861 -0.63416,-8.415428 -3.5371,-11.296875 C 371.9412,58.779742 360.51216,56.382372 349.875,56.345703 Z M 307.5,61.806641 c -0.23488,0.004 -0.50558,0.07134 -0.81641,0.21875 -7.71438,3.65855 -15.49938,7.234937 -22.8789,11.560547 -9.17687,5.379162 -17.85053,13.195246 -20.67578,23.714843 -1.06092,3.950229 1.62508,7.763169 2.62109,11.544919 0.85472,3.2454 3.58771,5.119 6.08984,6.96875 5.77086,4.26622 13.9592,4.97196 20.09571,1.91797 5.48135,-2.72793 8.62644,-8.80995 11.00195,-14.4414 5.2434,-12.430165 6.01199,-26.122209 5.92969,-39.371098 -0.006,-0.963314 -0.34939,-2.13082 -1.36719,-2.113281 z" />
      <path
         id="rect651"
         style="fill:#803300;stroke-width:0.896165"
         d="m 115.21775,215.99609 c -13.99887,-0.60486 -34.253674,14.87212 -26.475647,34.79393 17.264567,65.51618 33.915187,131.32104 51.563607,196.65672 4.47757,15.73945 15.40551,31.20294 30.09021,28.43998 58.22724,-0.1171 116.46421,0.23474 174.68533,-0.17687 18.90597,-3.57636 24.22365,-29.68514 29.27705,-49.15966 15.82237,-60.7068 31.69981,-121.39166 47.48776,-182.11219 1.20121,-19.91826 -18.33363,-29.75006 -31.88901,-28.44191 -91.57976,0 -183.15953,0 -274.7393,0 z"
         sodipodi:nodetypes="ccccccccc" />
      <ellipse
         style="fill:#ffd42a;fill-opacity:1;stroke:none;stroke-width:7.87753;stroke-linecap:round;stroke-dasharray:none;stroke-opacity:1"
         id="path1296"
         cx="313.0477"
         cy="57.624565"
         rx="29.269543"
         ry="28.04509" />
    </g>
  </g>
</svg>
